<svg width="25" height="24" viewBox="0 0 25 24" fill="none" xmlns="http://www.w3.org/2000/svg">
  <path
    d="M11.4242 4.96262V15.7151L6.60032 11.0175C6.2148 10.6421 5.58216 10.6421 5.19664 11.0175C5.10501 11.1065 5.0323 11.2123 4.9827 11.3288C4.9331 11.4452 4.90756 11.5701 4.90756 11.6961C4.90756 11.8222 4.9331 11.947 4.9827 12.0635C5.0323 12.1799 5.10501 12.2857 5.19664 12.3748L11.7109 18.7184C12.0964 19.0939 12.7192 19.0939 13.1047 18.7184L19.6189 12.3748C19.7104 12.2857 19.783 12.1799 19.8325 12.0634C19.8821 11.947 19.9076 11.8222 19.9076 11.6961C19.9076 11.5701 19.8821 11.4453 19.8325 11.3289C19.783 11.2124 19.7104 11.1066 19.6189 11.0175C19.5274 10.9284 19.4187 10.8577 19.2992 10.8094C19.1796 10.7612 19.0514 10.7364 18.922 10.7364C18.7926 10.7364 18.6644 10.7612 18.5448 10.8094C18.4253 10.8577 18.3166 10.9284 18.2251 11.0175L13.4012 15.7151V4.96262C13.4012 4.43318 12.9564 4 12.4127 4C11.869 4 11.4242 4.43318 11.4242 4.96262Z"
    fill="#3F3D56" />
</svg>